name C:/MyDriveSym/Projects/mobilecap/Data\Session20210820_0002\mocap\ForceDataProcessed\walking1_forces.mot
datacolumns 19
datarows 24
range 0.00000000 0.01150000
endheader 
time	R_ground_force_vx	R_ground_force_vy	R_ground_force_vz	R_ground_force_px	R_ground_force_py	R_ground_force_pz	R_ground_torque_x	R_ground_torque_y	R_ground_torque_z	L_ground_force_vx	L_ground_force_vy	L_ground_force_vz	L_ground_force_px	L_ground_force_py	L_ground_force_pz	L_ground_torque_x	L_ground_torque_y	L_ground_torque_z	
          0.00000000	         -2.89382300	        138.66803700	          7.53126000	          0.09375600	          0.00600000	         -0.14504900	          0.00000000	          0.57702100	          0.00000000	          0.00000000	          0.00000000	          0.00000000	          0.71557300	          0.00000000	         -0.19355300	          0.00000000	          0.00000000	          0.00000000	
          0.00050000	         -3.14713800	        140.57117700	          7.54560900	          0.09375600	          0.00600000	         -0.14504900	          0.00000000	          0.57724000	          0.00000000	          0.00000000	          0.00000000	          0.00000000	          0.71557300	          0.00000000	         -0.19355300	          0.00000000	          0.00000000	          0.00000000	
          0.00100000	         -3.40460900	        142.48877200	          7.55969200	          0.09375600	          0.00600000	         -0.14504900	          0.00000000	          0.57748500	          0.00000000	          0.00000000	          0.00000000	          0.00000000	          0.71557300	          0.00000000	         -0.19355300	          0.00000000	          0.00000000	          0.00000000	
          0.00150000	         -3.66626900	        144.42077800	          7.57350400	          0.09375600	          0.00600000	         -0.14504900	          0.00000000	          0.57775400	          0.00000000	          0.00000000	          0.00000000	          0.00000000	          0.71557300	          0.00000000	         -0.19355300	          0.00000000	          0.00000000	          0.00000000	
          0.00200000	         -3.93214800	        146.36715000	          7.58703600	          0.09400800	          0.00600000	         -0.14506100	          0.00000000	          0.57804800	          0.00000000	          0.00000000	          0.00000000	          0.00000000	          0.71557300	          0.00000000	         -0.19355300	          0.00000000	          0.00000000	          0.00000000	
          0.00250000	         -4.20227400	        148.32783800	          7.60028100	          0.09425800	          0.00600000	         -0.14507200	          0.00000000	          0.57836600	          0.00000000	          0.00000000	          0.00000000	          0.00000000	          0.71557300	          0.00000000	         -0.19355300	          0.00000000	          0.00000000	          0.00000000	
          0.00300000	         -4.47667800	        150.30279100	          7.61323000	          0.09450600	          0.00600000	         -0.14508300	          0.00000000	          0.57870700	          0.00000000	          0.00000000	          0.00000000	          0.00000000	          0.71557300	          0.00000000	         -0.19355300	          0.00000000	          0.00000000	          0.00000000	
          0.00350000	         -4.75538700	        152.29195700	          7.62587700	          0.09475100	          0.00600000	         -0.14509400	          0.00000000	          0.57907100	          0.00000000	          0.00000000	          0.00000000	          0.00000000	          0.71557300	          0.00000000	         -0.19355300	          0.00000000	          0.00000000	          0.00000000	
          0.00400000	         -5.03842800	        154.29527900	          7.63821300	          0.09499400	          0.00600000	         -0.14510400	          0.00000000	          0.57945700	          0.00000000	          0.00000000	          0.00000000	          0.00000000	          0.71557300	          0.00000000	         -0.19355300	          0.00000000	          0.00000000	          0.00000000	
          0.00450000	         -5.32582700	        156.31269900	          7.65023000	          0.09523500	          0.00600000	         -0.14511300	          0.00000000	          0.57986500	          0.00000000	          0.00000000	          0.00000000	          0.00000000	          0.71557300	          0.00000000	         -0.19355300	          0.00000000	          0.00000000	          0.00000000	
          0.00500000	         -5.61760700	        158.34415900	          7.66191900	          0.09547300	          0.00600000	         -0.14512300	          0.00000000	          0.58029300	          0.00000000	          0.00000000	          0.00000000	          0.00000000	          0.71557300	          0.00000000	         -0.19355300	          0.00000000	          0.00000000	          0.00000000	
          0.00550000	         -5.91379300	        160.38959600	          7.67327200	          0.09570900	          0.00600000	         -0.14513100	          0.00000000	          0.58074200	          0.00000000	          0.00000000	          0.00000000	          0.00000000	          0.71557300	          0.00000000	         -0.19355300	          0.00000000	          0.00000000	          0.00000000	
          0.00600000	         -6.21440500	        162.44894500	          7.68428000	          0.09594400	          0.00600000	         -0.14514000	          0.00000000	          0.58121100	          0.00000000	          0.00000000	          0.00000000	          0.00000000	          0.71557300	          0.00000000	         -0.19355300	          0.00000000	          0.00000000	          0.00000000	
          0.00650000	         -6.51946400	        164.52214000	          7.69493300	          0.09617600	          0.00600000	         -0.14514800	          0.00000000	          0.58169900	          0.00000000	          0.00000000	          0.00000000	          0.00000000	          0.71557300	          0.00000000	         -0.19355300	          0.00000000	          0.00000000	          0.00000000	
          0.00700000	         -6.82898900	        166.60911400	          7.70522300	          0.09640600	          0.00600000	         -0.14515600	          0.00000000	          0.58220600	          0.00000000	          0.00000000	          0.00000000	          0.00000000	          0.71557300	          0.00000000	         -0.19355300	          0.00000000	          0.00000000	          0.00000000	
          0.00750000	         -7.14299600	        168.70979600	          7.71513900	          0.09663400	          0.00600000	         -0.14516300	          0.00000000	          0.58273100	          0.00000000	          0.00000000	          0.00000000	          0.00000000	          0.71557300	          0.00000000	         -0.19355300	          0.00000000	          0.00000000	          0.00000000	
          0.00800000	         -7.46150000	        170.82411500	          7.72467300	          0.09686000	          0.00600000	         -0.14517000	          0.00000000	          0.58327300	          0.00000000	          0.00000000	          0.00000000	          0.00000000	          0.71557300	          0.00000000	         -0.19355300	          0.00000000	          0.00000000	          0.00000000	
          0.00850000	         -7.78451600	        172.95199500	          7.73381300	          0.09708500	          0.00600000	         -0.14517700	          0.00000000	          0.58383300	          0.00000000	          0.00000000	          0.00000000	          0.00000000	          0.71557300	          0.00000000	         -0.19355300	          0.00000000	          0.00000000	          0.00000000	
          0.00900000	         -8.11205500	        175.09336200	          7.74255100	          0.09730700	          0.00600000	         -0.14518300	          0.00000000	          0.58440800	          0.00000000	          0.00000000	          0.00000000	          0.00000000	          0.71557300	          0.00000000	         -0.19355300	          0.00000000	          0.00000000	          0.00000000	
          0.00950000	         -8.44412600	        177.24813800	          7.75087500	          0.09752800	          0.00600000	         -0.14519000	          0.00000000	          0.58499900	          0.00000000	          0.00000000	          0.00000000	          0.00000000	          0.71557300	          0.00000000	         -0.19355300	          0.00000000	          0.00000000	          0.00000000	
          0.01000000	         -8.78073700	        179.41624300	          7.75877400	          0.09774700	          0.00600000	         -0.14519500	          0.00000000	          0.58560600	          0.00000000	          0.00000000	          0.00000000	          0.00000000	          0.71557300	          0.00000000	         -0.19355300	          0.00000000	          0.00000000	          0.00000000	
          0.01050000	         -9.12189400	        181.59759600	          7.76623800	          0.09796400	          0.00600000	         -0.14520100	          0.00000000	          0.58622600	          0.00000000	          0.00000000	          0.00000000	          0.00000000	          0.71557300	          0.00000000	         -0.19355300	          0.00000000	          0.00000000	          0.00000000	
          0.01100000	         -9.46760100	        183.79211400	          7.77325400	          0.09818000	          0.00600000	         -0.14520600	          0.00000000	          0.58686100	          0.00000000	          0.00000000	          0.00000000	          0.00000000	          0.71557300	          0.00000000	         -0.19355300	          0.00000000	          0.00000000	          0.00000000	
          0.01150000	         -9.81786000	        185.99971300	          7.77981200	          0.09839400	          0.00600000	         -0.14521100	          0.00000000	          0.58750900	          0.00000000	          0.00000000	          0.00000000	          0.00000000	          0.71557300	          0.00000000	         -0.19355300	          0.00000000	          0.00000000	          0.00000000	
